<svg class="thumb" width="1088" height="228" viewBox="0,0,1088,228" xmlns="http://www.w3.org/2000/svg" xmlns:inkscape="http://www.inkscape.org/namespaces/inkscape" xmlns:sodipodi="http://sodipodi.sourceforge.net/DTD/sodipodi-0.dtd" xmlns:xlink="http://www.w3.org/1999/xlink" xmlns:ns1="http://www.inkscape.org/namespaces/inkscape" xmlns:sketch="http://www.bohemiancoding.com/sketch/ns"><defs></defs><g><g transform="matrix(2.5341,0,0,2.5341,159.0113,0.8773)"><svg width="62.42500051020445" height="90.99999999999999" viewBox="19.012999999999998,3.167,62.42500051020445,90.99999999999999"><defs><linearGradient x1="0.85" y1="0.85" x2="0.15" y2="0.15" id="linearGradientSk1s0ij6qo8"><stop offset="0%" stop-color="#ff9a17"></stop><stop offset="100%" stop-color="#ff9a17"></stop></linearGradient></defs><g><path fill="url('#linearGradientSk1s0ij6qo8')" d="M72.04,46.94c-1.854-3.787-5.132-9.249-9.84-16.387c-4.707-7.131-7.912-12.355-9.606-15.67  c-1.458-3.014-2.195-5.131-2.195-6.365V8.167c-1.233,4.626-4.248,10.613-9.029,17.942C34.504,36.75,30.652,42.888,29.804,44.51  c-3.861,7.089-5.791,13.335-5.791,18.74c0,7.252,2.504,13.392,7.522,18.403c5.011,5.01,11.264,7.514,18.751,7.514  c7.166,0,13.327-2.45,18.449-7.348c5.132-4.895,7.703-11.094,7.703-18.569C76.439,58.392,74.97,52.946,72.04,46.94z M47.67,82.545  c-4.889,0-9.335-1.988-12.537-5.192c-3.205-3.202-5.194-7.65-5.193-12.539c0-1.248,1.013-2.262,2.263-2.262  c1.25,0,2.263,1.014,2.263,2.262c0.002,3.654,1.476,6.941,3.868,9.339c2.397,2.393,5.683,3.864,9.335,3.866  c1.252,0,2.264,1.014,2.264,2.263C49.935,81.532,48.923,82.545,47.67,82.545z" stroke="none" style=""></path></g></svg></g><g transform="matrix(1.7573,0,0,1.7573,341.1401,2.1985)"><svg width="313" height="177" style="overflow: visible;"><defs><linearGradient x1="0" y1="0.5" x2="1" y2="0.5" id="linearGradientSk1s0ij6qqm"><stop offset="0%" stop-color="#ff9a17"></stop><stop offset="100%" stop-color="#ff9a17"></stop></linearGradient></defs><g><path d="M-134.25 0L-147.64999999999998 0L-147.64999999999998-39.4L-154.54999999999998-39.4L-154.54999999999998-49.6L-147.64999999999998-49.6L-147.64999999999998-52.8Q-147.64999999999998-62.6 -142.95-68.3Q-138.25-74 -130.14999999999998-74L-130.14999999999998-74Q-123.74999999999999-74 -117.24999999999999-70.9L-117.24999999999999-70.9L-119.94999999999999-60.8Q-121.44999999999999-61.6 -123.49999999999999-62.15Q-125.54999999999998-62.7 -127.24999999999999-62.7L-127.24999999999999-62.7Q-134.25-62.7 -134.25-53.3L-134.25-53.3L-134.25-49.6L-121.44999999999999-49.6L-121.44999999999999-39.4L-134.25-39.4L-134.25 0ZM-113.94999999999999-12.1L-113.94999999999999-73L-100.54999999999998-73L-100.54999999999998-16.8Q-100.54999999999998-13.9 -99.14999999999999-12.3Q-97.74999999999999-10.7 -95.14999999999999-10.7L-95.14999999999999-10.7Q-93.94999999999999-10.7 -92.49999999999999-11.1Q-91.04999999999998-11.5 -89.74999999999999-12.1L-89.74999999999999-12.1L-87.94999999999999-1.9Q-90.64999999999999-0.6 -94.24999999999999 0.1Q-97.85 0.8 -100.74999999999999 0.8L-100.74999999999999 0.8Q-107.04999999999998 0.8 -110.49999999999999-2.55Q-113.94999999999999-5.9 -113.94999999999999-12.1L-113.94999999999999-12.1ZM-57.94999999999999 1L-57.94999999999999 1Q-64.35 1 -69.44999999999999-1.2Q-74.54999999999998-3.4 -78.09999999999998-7.15Q-81.64999999999999-10.9 -83.54999999999998-15.8Q-85.44999999999999-20.7 -85.44999999999999-26.1L-85.44999999999999-26.1Q-85.44999999999999-31.6 -83.54999999999998-36.5Q-81.64999999999999-41.4 -78.09999999999998-45.15Q-74.54999999999998-48.9 -69.44999999999999-51.1Q-64.35-53.3 -57.94999999999999-53.3L-57.94999999999999-53.3Q-51.54999999999998-53.3 -46.499999999999986-51.1Q-41.44999999999999-48.9 -37.899999999999984-45.15Q-34.34999999999999-41.4 -32.44999999999999-36.5Q-30.549999999999983-31.6 -30.549999999999983-26.1L-30.549999999999983-26.1Q-30.549999999999983-20.7 -32.44999999999999-15.8Q-34.34999999999999-10.9 -37.84999999999999-7.15Q-41.34999999999999-3.4 -46.44999999999999-1.2Q-51.54999999999998 1 -57.94999999999999 1ZM-71.64999999999998-26.1L-71.64999999999998-26.1Q-71.64999999999998-22.6 -70.6-19.75Q-69.54999999999998-16.9 -67.69999999999999-14.8Q-65.85-12.7 -63.34999999999999-11.55Q-60.84999999999999-10.4 -57.94999999999999-10.4L-57.94999999999999-10.4Q-55.04999999999998-10.4 -52.54999999999998-11.55Q-50.04999999999998-12.7 -48.19999999999999-14.8Q-46.34999999999999-16.9 -45.29999999999998-19.8Q-44.249999999999986-22.7 -44.249999999999986-26.2L-44.249999999999986-26.2Q-44.249999999999986-29.6 -45.29999999999998-32.5Q-46.34999999999999-35.4 -48.19999999999999-37.5Q-50.04999999999998-39.6 -52.54999999999998-40.75Q-55.04999999999998-41.9 -57.94999999999999-41.9L-57.94999999999999-41.9Q-60.84999999999999-41.9 -63.34999999999999-40.7Q-65.85-39.5 -67.69999999999999-37.4Q-69.54999999999998-35.3 -70.6-32.4Q-71.64999999999998-29.5 -71.64999999999998-26.1ZM 2.6500000000000092 1L 2.6500000000000092 1Q-3.749999999999993 1 -8.84999999999999-1.2Q-13.949999999999992-3.4 -17.499999999999993-7.15Q-21.04999999999999-10.9 -22.949999999999992-15.8Q-24.84999999999999-20.7 -24.84999999999999-26.1L-24.84999999999999-26.1Q-24.84999999999999-31.6 -22.949999999999992-36.5Q-21.04999999999999-41.4 -17.499999999999993-45.15Q-13.949999999999992-48.9 -8.84999999999999-51.1Q-3.749999999999993-53.3  2.6500000000000092-53.3L 2.6500000000000092-53.3Q 9.050000000000011-53.3  14.100000000000009-51.1Q 19.150000000000006-48.9  22.70000000000001-45.15Q 26.250000000000007-41.4  28.150000000000006-36.5Q 30.05000000000001-31.6  30.05000000000001-26.1L 30.05000000000001-26.1Q 30.05000000000001-20.7  28.150000000000006-15.8Q 26.250000000000007-10.9  22.750000000000007-7.15Q 19.250000000000007-3.4  14.150000000000006-1.2Q 9.050000000000011 1  2.6500000000000092 1ZM-11.04999999999999-26.1L-11.04999999999999-26.1Q-11.04999999999999-22.6 -9.999999999999993-19.75Q-8.949999999999992-16.9 -7.099999999999991-14.8Q-5.249999999999993-12.7 -2.749999999999993-11.55Q-0.2499999999999929-10.4  2.6500000000000092-10.4L 2.6500000000000092-10.4Q 5.550000000000011-10.4  8.050000000000011-11.55Q 10.550000000000011-12.7  12.400000000000006-14.8Q 14.250000000000007-16.9  15.300000000000011-19.8Q 16.35000000000001-22.7  16.35000000000001-26.2L 16.35000000000001-26.2Q 16.35000000000001-29.6  15.300000000000011-32.5Q 14.250000000000007-35.4  12.400000000000006-37.5Q 10.550000000000011-39.6  8.050000000000011-40.75Q 5.550000000000011-41.9  2.6500000000000092-41.9L 2.6500000000000092-41.9Q-0.2499999999999929-41.9 -2.749999999999993-40.7Q-5.249999999999993-39.5 -7.099999999999991-37.4Q-8.949999999999992-35.3 -9.999999999999993-32.4Q-11.04999999999999-29.5 -11.04999999999999-26.1ZM 63.25 1L 63.25 1Q 56.85 1  51.75-1.2Q 46.650000000000006-3.4  43.1-7.15Q 39.550000000000004-10.9  37.650000000000006-15.8Q 35.75-20.7  35.75-26.1L 35.75-26.1Q 35.75-31.6  37.650000000000006-36.5Q 39.550000000000004-41.4  43.1-45.15Q 46.650000000000006-48.9  51.75-51.1Q 56.85-53.3  63.25-53.3L 63.25-53.3Q 69.65-53.3  74.7-51.1Q 79.75-48.9  83.30000000000001-45.15Q 86.85-41.4  88.75-36.5Q 90.65-31.6  90.65-26.1L 90.65-26.1Q 90.65-20.7  88.75-15.8Q 86.85-10.9  83.35-7.15Q 79.85-3.4  74.75-1.2Q 69.65 1  63.25 1ZM 49.550000000000004-26.1L 49.550000000000004-26.1Q 49.550000000000004-22.6  50.6-19.75Q 51.650000000000006-16.9  53.5-14.8Q 55.35-12.7  57.85-11.55Q 60.35-10.4  63.25-10.4L 63.25-10.4Q 66.15-10.4  68.65-11.55Q 71.15-12.7  73-14.8Q 74.85-16.9  75.9-19.8Q 76.95-22.7  76.95-26.2L 76.95-26.2Q 76.95-29.6  75.9-32.5Q 74.85-35.4  73-37.5Q 71.15-39.6  68.65-40.75Q 66.15-41.9  63.25-41.9L 63.25-41.9Q 60.35-41.9  57.85-40.7Q 55.35-39.5  53.5-37.4Q 51.650000000000006-35.3  50.6-32.4Q 49.550000000000004-29.5  49.550000000000004-26.1ZM 131.04999999999998 1L 131.04999999999998 1Q 124.84999999999998 1  120.24999999999999-1.75Q 115.64999999999998-4.5  113.04999999999998-9.2L 113.04999999999998-9.2L 113.04999999999998 21.3L 99.64999999999998 21.3L 99.64999999999998-52.4L 111.34999999999998-52.4L 111.34999999999998-43.4Q 114.24999999999999-48  118.84999999999998-50.65Q 123.44999999999999-53.3  129.45-53.3L 129.45-53.3Q 134.75-53.3  139.25-51.15Q 143.75-49  147-45.35Q 150.25-41.7  152.09999999999997-36.75Q 153.95-31.8  153.95-26.3L 153.95-26.3Q 153.95-20.6  152.25-15.6Q 150.54999999999998-10.6  147.5-6.9Q 144.45-3.2  140.25-1.1Q 136.04999999999998 1  131.04999999999998 1ZM 126.54999999999998-10.4L 126.54999999999998-10.4Q 129.54999999999998-10.4  132.09999999999997-11.7Q 134.64999999999998-13  136.45-15.2Q 138.25-17.4  139.25-20.3Q 140.25-23.2  140.25-26.3L 140.25-26.3Q 140.25-29.6  139.14999999999998-32.45Q 138.04999999999998-35.3  136.09999999999997-37.4Q 134.14999999999998-39.5  131.5-40.7Q 128.84999999999997-41.9  125.74999999999999-41.9L 125.74999999999999-41.9Q 123.84999999999998-41.9  121.84999999999998-41.25Q 119.84999999999998-40.6  118.14999999999998-39.4Q 116.44999999999999-38.2  115.09999999999998-36.6Q 113.74999999999999-35  113.04999999999998-33.1L 113.04999999999998-33.1L 113.04999999999998-20.8Q 114.84999999999998-16.3  118.54999999999998-13.35Q 122.24999999999999-10.4  126.54999999999998-10.4Z" data-textpath="flooop" data-text-anchor="middle" data-font-size="100" data-letterspacing="0" data-side="left" data-offset="0" data-dx="0" data-dy="87.75" data-xmlspace="preserve" data-href="" data-font="Raleway" data-font-src="/Content/clientfonts/raleway-bold.woff" data-font-scale="contain" transform="translate(156.5,87.75)" data-x="156.5" data-y="0" fill="url('#linearGradientSk1s0ij6qqm')"></path></g></svg></g><g transform="matrix(2.4228,0,0,2.6667,339.3402,160.3333)"><svg width="186.742" height="17.218999999999994" viewBox="-5,79.525,186.742,17.218999999999994"><defs><linearGradient x1="0" y1="0.5" x2="1" y2="0.5" id="linearGradientSk1s0ij6qoi"><stop offset="0%" stop-color="#ffc917"></stop><stop offset="100%" stop-color="#ffc917"></stop></linearGradient></defs><g><rect y="84.525" width="176.742" height="7.219" stroke="none" fill="url('#linearGradientSk1s0ij6qoi')" style=""></rect></g></svg></g></g></svg>